# This file uses centimeters as units for non-parametric coordinates.

mtllib 111.mtl
g default
v -13.681246 -1.199629 14.026543
v 15.888827 -1.199629 14.026543
v -13.681246 1.199629 14.026543
v 15.888827 1.199629 14.026543
v -13.681246 1.199629 11.627285
v 15.888827 1.199629 11.627285
v -13.681246 -1.199629 11.627285
v 15.888827 -1.199629 11.627285
v 6.645795 1.199629 11.627285
v 6.413045 -1.199629 11.627285
v 6.413045 -1.199629 14.026543
v 6.645795 1.199629 14.026543
v 4.647664 1.199629 11.627285
v 4.647664 -1.199629 11.627285
v 4.647664 -1.199629 14.026543
v 4.647664 1.199629 14.026543
v -3.672769 1.199629 11.627285
v -3.672769 -1.199629 11.627285
v -3.672769 -1.199629 14.026543
v -3.672769 1.199629 14.026543
v -6.146635 1.199629 11.627285
v -6.146635 -1.199629 11.627285
v -6.146635 -1.199629 14.026543
v -6.146635 1.199629 14.026543
v 4.647664 -1.199629 24.279299
v 4.647664 1.199629 24.279299
v 6.413045 -1.199629 24.279299
v 6.645795 1.199629 24.279299
v -6.146635 -1.199629 24.279291
v -6.146635 1.199629 24.279291
v -3.672769 -1.199629 24.279291
v -3.672769 1.199629 24.279291
v 4.647664 -1.199629 21.903171
v 6.413045 -1.199629 21.903171
v 6.645795 1.199629 21.903171
v 4.647664 1.199629 21.903171
v -6.146635 -1.199629 21.796361
v -3.672769 -1.199629 21.796361
v -3.672769 1.199629 21.796361
v -6.146635 1.199629 21.796361
v 15.888824 -1.199629 21.903171
v 15.888827 1.199629 21.903171
v 15.888827 1.199629 24.279299
v 15.888824 -1.199629 24.279299
v -13.681248 1.199629 21.796361
v -13.681248 -1.199629 21.796361
v -13.681248 -1.199629 24.279291
v -13.681248 1.199629 24.279291
v 4.647664 -1.199629 30.233186
v 4.647664 1.199629 30.233186
v 6.413045 -1.199629 30.233186
v 6.645795 1.199629 30.233186
v -6.146635 -1.199629 30.233184
v -6.146635 1.199629 30.233184
v -3.672769 -1.199629 30.233184
v -3.672769 1.199629 30.233184
v -6.146635 1.199629 5.706016
v -3.672769 1.199629 5.706016
v -3.672769 -1.199629 5.706016
v -6.146635 -1.199629 5.706016
v 4.647664 1.199629 5.706010
v 6.645795 1.199629 5.706010
v 6.413045 -1.199629 5.706010
v 4.647664 -1.199629 5.706010
vt 0.375000 0.000000
vt 0.625000 0.000000
vt 0.375000 0.250000
vt 0.625000 0.250000
vt 0.375000 0.500000
vt 0.625000 0.500000
vt 0.375000 0.750000
vt 0.625000 0.750000
vt 0.375000 1.000000
vt 0.625000 1.000000
vt 0.875000 0.000000
vt 0.875000 0.250000
vt 0.125000 0.000000
vt 0.125000 0.250000
vt 0.573916 0.500000
vt 0.573916 0.750000
vt 0.573916 0.000000
vt 0.573916 1.000000
vt 0.573916 0.250000
vt 0.553568 0.500000
vt 0.553568 0.750000
vt 0.553568 0.000000
vt 0.553568 1.000000
vt 0.553568 0.250000
vt 0.457668 0.500000
vt 0.457668 0.750000
vt 0.457668 0.000000
vt 0.457668 1.000000
vt 0.457668 0.250000
vt 0.429155 0.500000
vt 0.429155 0.750000
vt 0.429155 0.000000
vt 0.429155 1.000000
vt 0.429155 0.250000
vt 0.553568 0.250000
vt 0.553568 0.000000
vt 0.573916 0.000000
vt 0.573916 0.250000
vt 0.429155 0.250000
vt 0.429155 0.000000
vt 0.457668 0.000000
vt 0.457668 0.250000
vt 0.553568 0.000000
vt 0.573916 0.000000
vt 0.573916 0.250000
vt 0.553568 0.250000
vt 0.429155 0.000000
vt 0.457668 0.000000
vt 0.457668 0.250000
vt 0.429155 0.250000
vt 0.573916 0.000000
vt 0.573916 0.250000
vt 0.573916 0.250000
vt 0.573916 0.000000
vt 0.429155 0.250000
vt 0.429155 0.000000
vt 0.429155 0.000000
vt 0.429155 0.250000
vt 0.553568 0.250000
vt 0.553568 0.000000
vt 0.573916 0.000000
vt 0.573916 0.250000
vt 0.429155 0.250000
vt 0.429155 0.000000
vt 0.457668 0.000000
vt 0.457668 0.250000
vt 0.429155 0.500000
vt 0.457668 0.500000
vt 0.457668 0.750000
vt 0.429155 0.750000
vt 0.553568 0.500000
vt 0.573916 0.500000
vt 0.573916 0.750000
vt 0.553568 0.750000
vn 0.000000 0.000000 1.000000
vn 0.000000 0.000000 1.000000
vn 0.000000 0.000000 1.000000
vn 0.000000 0.000000 1.000000
vn 0.000000 1.000000 0.000000
vn 0.000000 1.000000 0.000000
vn 0.000000 1.000000 0.000000
vn 0.000000 1.000000 0.000000
vn 0.000000 0.000000 -1.000000
vn 0.000000 0.000000 -1.000000
vn 0.000000 0.000000 -1.000000
vn 0.000000 0.000000 -1.000000
vn 0.000000 -1.000000 0.000000
vn 0.000000 -1.000000 0.000000
vn 0.000000 -1.000000 0.000000
vn 0.000000 -1.000000 0.000000
vn 1.000000 0.000000 0.000000
vn 1.000000 0.000000 0.000000
vn 1.000000 0.000000 0.000000
vn 1.000000 0.000000 0.000000
vn -1.000000 0.000000 0.000000
vn -1.000000 0.000000 0.000000
vn -1.000000 0.000000 0.000000
vn -1.000000 0.000000 0.000000
vn 0.000000 0.000000 -1.000000
vn 0.000000 0.000000 -1.000000
vn 0.000000 0.000000 -1.000000
vn 0.000000 0.000000 -1.000000
vn 0.000000 -1.000000 0.000000
vn 0.000000 -1.000000 0.000000
vn 0.000000 -1.000000 0.000000
vn 0.000000 -1.000000 0.000000
vn 0.000000 0.000000 1.000000
vn 0.000000 0.000000 1.000000
vn 0.000000 0.000000 1.000000
vn 0.000000 0.000000 1.000000
vn 0.000000 1.000000 0.000000
vn 0.000000 1.000000 0.000000
vn 0.000000 1.000000 0.000000
vn 0.000000 1.000000 0.000000
vn 0.000000 0.000000 -1.000000
vn 0.000000 0.000000 -1.000000
vn 0.000000 0.000000 -1.000000
vn 0.000000 0.000000 -1.000000
vn 0.000000 -1.000000 0.000000
vn 0.000000 -1.000000 0.000000
vn 0.000000 0.000000 1.000000
vn 0.000000 0.000000 1.000000
vn 0.000000 0.000000 1.000000
vn 0.000000 0.000000 1.000000
vn 0.000000 1.000000 0.000000
vn 0.000000 1.000000 0.000000
vn 0.000000 0.000000 -1.000000
vn 0.000000 0.000000 -1.000000
vn 0.000000 0.000000 -1.000000
vn 0.000000 0.000000 -1.000000
vn 0.000000 -1.000000 0.000000
vn 0.000000 -1.000000 0.000000
vn 0.000000 0.000000 1.000000
vn 0.000000 0.000000 1.000000
vn 0.000000 0.000000 1.000000
vn 0.000000 0.000000 1.000000
vn 0.000000 1.000000 0.000000
vn 0.000000 1.000000 0.000000
vn 0.000000 0.000000 -1.000000
vn 0.000000 0.000000 -1.000000
vn 0.000000 0.000000 -1.000000
vn 0.000000 0.000000 -1.000000
vn 0.000000 0.000000 1.000000
vn 0.000000 0.000000 1.000000
vn 0.000000 0.000000 1.000000
vn 0.000000 0.000000 1.000000
vn 0.000000 -1.000000 0.000000
vn 0.000000 -1.000000 0.000000
vn 0.000000 -1.000000 0.000000
vn 0.000000 -1.000000 0.000000
vn 1.000000 -0.000001 0.000000
vn 1.000000 -0.000001 0.000000
vn 1.000000 -0.000001 0.000000
vn 1.000000 -0.000001 0.000000
vn 0.000000 1.000000 0.000000
vn 0.000000 1.000000 0.000000
vn 0.000000 1.000000 0.000000
vn 0.000000 1.000000 0.000000
vn -1.000000 0.000000 0.000000
vn -1.000000 0.000000 0.000000
vn -1.000000 0.000000 0.000000
vn -1.000000 0.000000 0.000000
vn 0.000000 -1.000000 0.000000
vn 0.000000 -1.000000 0.000000
vn 0.000000 -1.000000 0.000000
vn 0.000000 -1.000000 0.000000
vn 0.000000 1.000000 0.000000
vn 0.000000 1.000000 0.000000
vn 0.000000 1.000000 0.000000
vn 0.000000 1.000000 0.000000
vn 0.000000 -1.000000 0.000000
vn 0.000000 -1.000000 0.000000
vn 0.995327 -0.096556 0.000000
vn 0.995327 -0.096556 0.000000
vn 0.995327 -0.096556 0.000000
vn 0.995327 -0.096556 0.000000
vn 0.000000 1.000000 0.000000
vn 0.000000 1.000000 0.000000
vn -1.000000 0.000000 0.000000
vn -1.000000 0.000000 0.000000
vn -1.000000 0.000000 0.000000
vn -1.000000 0.000000 0.000000
vn 0.000000 -1.000000 0.000000
vn 0.000000 -1.000000 0.000000
vn 1.000000 0.000000 0.000000
vn 1.000000 0.000000 0.000000
vn 1.000000 0.000000 0.000000
vn 1.000000 0.000000 0.000000
vn 0.000000 1.000000 0.000000
vn 0.000000 1.000000 0.000000
vn -1.000000 0.000000 0.000000
vn -1.000000 0.000000 0.000000
vn -1.000000 0.000000 0.000000
vn -1.000000 0.000000 0.000000
vn 0.000000 1.000000 0.000000
vn 0.000000 1.000000 0.000000
vn 0.000000 1.000000 0.000000
vn 0.000000 1.000000 0.000000
vn 0.012836 0.000000 -0.999918
vn 0.012836 0.000000 -0.999918
vn 0.012836 0.000000 -0.999918
vn 0.012836 0.000000 -0.999918
vn 0.000000 -1.000000 0.000000
vn 0.000000 -1.000000 0.000000
vn 0.000000 -1.000000 0.000000
vn 0.000000 -1.000000 0.000000
vn -0.000001 0.000000 1.000000
vn -0.000001 0.000000 1.000000
vn -0.000001 0.000000 1.000000
vn -0.000001 0.000000 1.000000
vn 0.000000 0.000000 -1.000000
vn 0.000000 0.000000 -1.000000
vn 0.000000 0.000000 -1.000000
vn 0.000000 0.000000 -1.000000
vn 0.000000 1.000000 0.000000
vn 0.000000 1.000000 0.000000
vn 0.000000 1.000000 0.000000
vn 0.000000 1.000000 0.000000
vn 0.000000 0.000000 1.000000
vn 0.000000 0.000000 1.000000
vn 0.000000 0.000000 1.000000
vn 0.000000 0.000000 1.000000
vn 0.000000 -1.000000 0.000000
vn 0.000000 -1.000000 0.000000
vn 0.000000 -1.000000 0.000000
vn 0.000000 -1.000000 0.000000
vn 0.000000 0.000000 -1.000000
vn 0.000000 0.000000 -1.000000
vn 0.000000 0.000000 -1.000000
vn 0.000000 0.000000 -1.000000
vn 0.000000 -1.000000 0.000000
vn 0.000000 -1.000000 0.000000
vn 0.000000 -1.000000 0.000000
vn 0.000000 -1.000000 0.000000
vn 0.000000 0.000000 1.000000
vn 0.000000 0.000000 1.000000
vn 0.000000 0.000000 1.000000
vn 0.000000 0.000000 1.000000
vn 0.000000 1.000000 0.000000
vn 0.000000 1.000000 0.000000
vn 0.000000 1.000000 0.000000
vn 0.000000 1.000000 0.000000
vn -1.000000 0.000000 0.000000
vn -1.000000 0.000000 0.000000
vn -1.000000 0.000000 0.000000
vn -1.000000 0.000000 0.000000
vn 0.000000 -1.000000 0.000000
vn 0.000000 -1.000000 0.000000
vn 0.000000 -1.000000 0.000000
vn 0.000000 -1.000000 0.000000
vn 0.995327 -0.096556 0.000000
vn 0.995327 -0.096556 0.000000
vn 0.995327 -0.096556 0.000000
vn 0.995327 -0.096556 0.000000
vn 0.000000 1.000000 0.000000
vn 0.000000 1.000000 0.000000
vn 0.000000 1.000000 0.000000
vn 0.000000 1.000000 0.000000
vn -1.000000 0.000000 0.000000
vn -1.000000 0.000000 0.000000
vn -1.000000 0.000000 0.000000
vn -1.000000 0.000000 0.000000
vn 0.000000 -1.000000 0.000000
vn 0.000000 -1.000000 0.000000
vn 0.000000 -1.000000 0.000000
vn 0.000000 -1.000000 0.000000
vn 1.000000 0.000000 0.000000
vn 1.000000 0.000000 0.000000
vn 1.000000 0.000000 0.000000
vn 1.000000 0.000000 0.000000
vn 0.000000 1.000000 0.000000
vn 0.000000 1.000000 0.000000
vn 0.000000 1.000000 0.000000
vn 0.000000 1.000000 0.000000
vn 0.000000 1.000000 0.000000
vn 0.000000 1.000000 0.000000
vn 0.000000 1.000000 0.000000
vn 0.000000 1.000000 0.000000
vn 1.000000 0.000000 0.000000
vn 1.000000 0.000000 0.000000
vn 1.000000 0.000000 0.000000
vn 1.000000 0.000000 0.000000
vn 0.000000 -1.000000 0.000000
vn 0.000000 -1.000000 0.000000
vn 0.000000 -1.000000 0.000000
vn 0.000000 -1.000000 0.000000
vn -1.000000 0.000000 0.000000
vn -1.000000 0.000000 0.000000
vn -1.000000 0.000000 0.000000
vn -1.000000 0.000000 0.000000
vn 0.000000 1.000000 0.000000
vn 0.000000 1.000000 0.000000
vn 0.000000 1.000000 0.000000
vn 0.000000 1.000000 0.000000
vn 0.995327 -0.096556 0.000000
vn 0.995327 -0.096556 0.000000
vn 0.995327 -0.096556 0.000000
vn 0.995327 -0.096556 0.000000
vn 0.000000 -1.000000 0.000000
vn 0.000000 -1.000000 0.000000
vn 0.000000 -1.000000 0.000000
vn 0.000000 -1.000000 0.000000
vn -1.000000 0.000000 0.000000
vn -1.000000 0.000000 0.000000
vn -1.000000 0.000000 0.000000
vn -1.000000 0.000000 0.000000
s off
g pCube1
usemtl initialShadingGroup
f 1/1/1 23/32/2 24/34/3 3/3/4
s 1
f 3/3/5 24/34/6 21/30/7 5/5/8
s off
f 5/5/9 21/30/10 22/31/11 7/7/12
s 2
f 7/7/13 22/31/14 23/33/15 1/9/16
s off
f 2/2/17 8/11/18 6/12/19 4/4/20
f 7/13/21 1/1/22 3/3/23 5/14/24
f 9/15/25 6/6/26 8/8/27 10/16/28
s 2
f 11/18/29 10/16/30 8/8/31 2/10/32
s off
f 12/19/33 11/17/34 2/2/35 4/4/36
s 1
f 9/15/37 12/19/38 4/4/39 6/6/40
s off
f 61/71/41 62/72/42 63/73/43 64/74/44
s 2
f 15/23/45 14/21/46 10/16/30 11/18/29
s off
f 50/59/47 49/60/48 51/61/49 52/62/50
s 1
f 13/20/51 16/24/52 12/19/38 9/15/37
s off
f 17/25/53 13/20/54 14/21/55 18/26/56
s 2
f 19/28/57 18/26/58 14/21/46 15/23/45
s off
f 20/29/59 19/27/60 15/22/61 16/24/62
s 1
f 17/25/63 20/29/64 16/24/52 13/20/51
s off
f 57/67/65 58/68/66 59/69/67 60/70/68
s 2
f 23/33/15 22/31/14 18/26/58 19/28/57
s off
f 54/63/69 53/64/70 55/65/71 56/66/72
s 1
f 21/30/7 24/34/6 20/29/64 17/25/63
s 5
f 33/43/73 34/44/74 27/37/75 25/36/76
s off
f 41/51/77 42/52/78 43/53/79 44/54/80
s 6
f 35/45/81 36/46/82 26/35/83 28/38/84
s off
f 45/55/85 46/56/86 47/57/87 48/58/88
s 7
f 37/47/89 38/48/90 31/41/91 29/40/92
s 8
f 39/49/93 40/50/94 30/39/95 32/42/96
s 5
f 15/22/97 11/17/98 34/44/74 33/43/73
s off
f 11/17/99 12/19/100 35/45/101 34/44/102
s 6
f 12/19/103 16/24/104 36/46/82 35/45/81
s off
f 16/24/105 15/22/106 33/43/107 36/46/108
s 7
f 23/32/109 19/27/110 38/48/90 37/47/89
s off
f 19/27/111 20/29/112 39/49/113 38/48/114
s 8
f 20/29/115 24/34/116 40/50/94 39/49/93
s off
f 24/34/117 23/32/118 37/47/119 40/50/120
f 26/35/121 36/46/122 39/49/123 32/42/124
f 36/46/125 33/43/126 38/48/127 39/49/128
f 33/43/129 25/36/130 31/41/131 38/48/132
f 25/36/133 26/35/134 32/42/135 31/41/136
f 34/44/137 35/45/138 42/52/139 41/51/140
f 35/45/141 28/38/142 43/53/143 42/52/144
f 28/38/145 27/37/146 44/54/147 43/53/148
f 27/37/149 34/44/150 41/51/151 44/54/152
f 40/50/153 37/47/154 46/56/155 45/55/156
f 37/47/157 29/40/158 47/57/159 46/56/160
f 29/40/161 30/39/162 48/58/163 47/57/164
f 30/39/165 40/50/166 45/55/167 48/58/168
f 26/35/169 25/36/170 49/60/171 50/59/172
f 25/36/173 27/37/174 51/61/175 49/60/176
f 27/37/177 28/38/178 52/62/179 51/61/180
f 28/38/181 26/35/182 50/59/183 52/62/184
f 30/39/185 29/40/186 53/64/187 54/63/188
f 29/40/189 31/41/190 55/65/191 53/64/192
f 31/41/193 32/42/194 56/66/195 55/65/196
f 32/42/197 30/39/198 54/63/199 56/66/200
f 21/30/201 17/25/202 58/68/203 57/67/204
f 17/25/205 18/26/206 59/69/207 58/68/208
f 18/26/209 22/31/210 60/70/211 59/69/212
f 22/31/213 21/30/214 57/67/215 60/70/216
f 13/20/217 9/15/218 62/72/219 61/71/220
f 9/15/221 10/16/222 63/73/223 62/72/224
f 10/16/225 14/21/226 64/74/227 63/73/228
f 14/21/229 13/20/230 61/71/231 64/74/232
