# This file uses centimeters as units for non-parametric coordinates.

mtllib 333.mtl
g default
v 32.014851 0.255767 -74.263499
v 45.546513 0.349266 -73.949554
v 32.142529 0.349266 -91.794059
v 45.350826 0.349266 -92.062408
v 32.017033 0.141354 -71.829669
v 36.293579 0.349266 -95.194007
v 41.395466 0.349266 -70.549606
v 41.128155 0.349266 -95.292228
v 32.012589 0.375207 -76.804248
v 47.901772 0.349266 -79.740211
v 29.787273 0.349266 -86.003402
v 47.830143 0.349266 -86.369971
v 29.787273 3.921401 -86.003402
v 35.835617 3.921401 -87.076347
v 36.293579 3.921401 -95.194007
v 32.142529 3.921401 -91.794059
v 41.704712 3.921401 -87.073463
v 41.128155 3.921401 -95.292228
v 47.830143 3.921401 -86.369971
v 45.350826 3.921401 -92.062408
v 31.902519 3.852805 -74.094299
v 31.900253 3.972246 -76.635051
v 31.904699 3.738393 -71.660476
v 35.836094 3.921401 -78.614829
v 41.704018 3.921401 -78.617522
v 41.395466 3.921401 -70.549606
v 47.901772 3.921401 -79.740211
v 45.546513 3.921401 -73.949554
v -6.788311 -0.998381 -73.883220
v -5.075562 -1.093905 -70.800193
v -9.797695 -0.980176 -75.748321
v -0.980907 -0.840596 -72.324748
v -2.202225 -0.804943 -74.430881
v -2.203480 -0.741059 -75.789863
v 1.308754 -1.362837 -60.239249
v -2.847397 -1.483879 -60.425315
v -0.150417 -1.123237 -66.262485
v -3.597874 -1.224012 -66.448249
v 6.374882 -1.487409 -55.640983
v 5.004448 -1.472008 -53.677486
v 2.294701 -1.529512 -57.705566
v -0.593082 -1.628332 -55.564216
v -1.093243 2.756441 -72.155551
v -2.314560 2.792096 -74.261672
v -6.900650 2.598658 -73.714023
v -5.187885 2.503134 -70.630996
v -2.315815 2.855980 -75.620658
v -9.910038 2.616861 -75.579120
v -0.262768 2.473801 -66.093288
v -3.710209 2.373027 -66.279052
v -2.959732 2.113160 -60.256129
v 1.196415 2.234203 -60.070052
v 2.182365 2.067527 -57.536365
v -0.705406 1.968707 -55.395026
v 4.892126 2.125031 -53.508281
v 6.262545 2.109629 -55.471774
v 8.313023 -1.397445 -55.190910
v 8.309290 -1.297383 -54.119853
v 8.200680 2.199594 -55.021720
v 8.196953 2.299654 -53.950660
v 3.940311 -0.681208 -74.388957
v 3.942295 -0.784474 -72.192241
v 3.829956 2.812564 -72.023040
v 3.827976 2.915830 -74.219756
v 3.826447 2.995302 -75.910293
v 3.938782 -0.601737 -76.079501
v 7.444193 -0.572588 -74.371848
v 7.446211 -0.677439 -72.141414
v 7.333878 2.919598 -71.972221
v 7.331865 3.024450 -74.202651
v 7.330219 3.109602 -76.014045
v 7.442553 -0.487435 -76.183242
v 2.945374 -1.128442 -65.952991
v 2.833031 2.468597 -65.783797
v 6.449284 -1.021407 -65.902167
v 6.336943 2.575630 -65.732974
v 3.953171 -1.348775 -60.188228
v 3.840820 2.248263 -60.019027
v 7.457085 -1.241741 -60.137386
v 7.344738 2.355297 -59.968200
v 7.357290 -1.316204 -57.591674
v 7.244955 2.280834 -57.422462
v 8.689791 -1.225946 -58.782077
v 8.577457 2.371091 -58.612872
v 10.800093 -1.208172 -56.679057
v 10.687759 2.388866 -56.509856
v 10.798643 -1.139324 -57.869258
v 10.686304 2.457714 -57.700065
v 35.840370 3.814283 -71.199813
v 35.932892 0.228165 -71.295196
v 35.977623 0.283148 -74.171561
v 36.030804 0.368647 -77.546725
v 36.158340 0.349266 -86.132842
v 36.244072 0.349266 -91.877387
v 41.354649 0.320301 -74.046809
v 41.310455 0.360027 -78.522285
v 41.225990 0.349266 -86.235801
v 41.163971 0.349266 -91.977340
v 35.838726 3.855502 -74.053115
v 41.527100 3.921401 -73.991527
vt 0.000000 0.692897
vt 0.284688 0.692897
vt 0.284688 1.000000
vt 0.000000 1.000000
vt 0.635885 0.692897
vt 0.635885 1.000000
vt 1.000000 0.692897
vt 1.000000 1.000000
vt 0.088967 0.203236
vt 0.084882 0.116466
vt 0.036480 0.035875
vt 0.284688 0.285440
vt 0.635885 0.285440
vt 0.635885 0.000000
vt 1.000000 0.285440
vt 1.000000 0.000000
vt 0.284688 1.000000
vt 0.000000 1.000000
vt 0.000000 0.692897
vt 0.635885 1.000000
vt 1.000000 0.692897
vt 1.000000 1.000000
vt 0.156630 0.206785
vt 0.201787 0.229815
vt 0.071371 0.108278
vt 0.635885 0.000000
vt 1.000000 0.000000
vt 1.000000 0.285440
vt 0.000000 0.883428
vt 1.000000 0.883428
vt 1.000000 1.000000
vt 0.000000 1.000000
vt 0.000000 0.883428
vt 1.000000 0.883428
vt 1.000000 1.000000
vt 0.000000 1.000000
vt 0.000000 0.635574
vt 1.000000 0.635574
vt 0.000000 0.635574
vt 1.000000 0.635574
vt 0.000000 0.643476
vt 1.000000 0.643476
vt 1.000000 1.000000
vt 0.000000 1.000000
vt 0.000000 0.000000
vt 1.000000 0.000000
vt 0.000000 0.547947
vt 1.000000 0.547947
vt 1.000000 1.000000
vt 0.000000 1.000000
vt 0.000000 0.000000
vt 1.000000 0.000000
vt 0.000000 0.883428
vt 0.000000 1.000000
vt 1.000000 1.000000
vt 1.000000 0.883428
vt 0.000000 0.883428
vt 0.000000 1.000000
vt 1.000000 1.000000
vt 1.000000 0.883428
vt 1.000000 0.635574
vt 0.000000 0.635574
vt 1.000000 0.635574
vt 0.000000 0.635574
vt 0.000000 0.643476
vt 0.000000 1.000000
vt 1.000000 1.000000
vt 1.000000 0.643476
vt 0.000000 0.000000
vt 1.000000 0.000000
vt 0.000000 0.547947
vt 0.000000 1.000000
vt 1.000000 1.000000
vt 1.000000 0.547947
vt 0.000000 0.000000
vt 1.000000 0.000000
vt 1.000000 1.000000
vt 0.000000 1.000000
vt 1.000000 0.883428
vt 1.000000 1.000000
vt 0.000000 1.000000
vt 0.000000 0.883428
vt 0.000000 0.635574
vt 1.000000 0.635574
vt 1.000000 0.643476
vt 1.000000 1.000000
vt 0.000000 1.000000
vt 0.000000 0.643476
vt 1.000000 0.000000
vt 0.000000 0.000000
vt 1.000000 0.547947
vt 1.000000 1.000000
vt 1.000000 1.000000
vt 0.000000 1.000000
vt 0.000000 1.000000
vt 1.000000 1.000000
vt 1.000000 0.000000
vt 0.000000 0.547947
vt 0.000000 0.000000
vt 0.000000 1.000000
vt 1.000000 0.545228
vt 0.000000 0.545228
vt 0.000000 0.635574
vt 0.000000 0.635574
vt 0.000000 0.545228
vt 0.000000 0.545228
vt 0.000000 0.545228
vt 1.000000 0.545228
vt 0.000000 0.545228
vt 1.000000 0.545228
vt 1.000000 0.545228
vt 1.000000 0.545228
vt 0.000000 0.545228
vt -0.016055 0.000000
vt 1.020804 -0.000000
vt 0.000000 0.545228
vt -0.001961 0.000000
vt -0.007843 0.000000
vt 1.020803 -0.000000
vt -0.067833 0.000000
vt 1.025276 -0.000000
vt 1.006319 0.000000
vt -0.067833 0.000000
vt 1.056403 -0.000000
vt 0.000000 0.635574
vt 0.000000 0.635574
vt 0.000000 0.545228
vt 0.000000 0.545228
vt 0.000000 0.635574
vt 0.000000 0.635574
vt 0.000000 0.545228
vt 0.000000 0.545228
vt 0.000000 0.635574
vt 0.000000 0.635574
vt 0.000000 0.545228
vt 0.000000 0.545228
vt 0.285044 0.020998
vt 0.307078 0.063068
vt 0.435546 0.162513
vt 0.369910 0.226676
vt 0.353107 0.692897
vt 0.310528 1.000000
vt 0.752728 0.071193
vt 0.650144 0.252812
vt 0.633974 0.692897
vt 0.683013 1.000000
vt 0.284907 0.122756
vt 0.635885 0.121774
vn 0.002783 0.999994 -0.002278
vn 0.000982 0.999999 -0.000804
vn 0.000000 1.000000 0.000000
vn 0.000000 1.000000 0.000000
vn 0.000000 1.000000 0.000000
vn 0.000000 1.000000 0.000000
vn 0.000000 1.000000 -0.000000
vn 0.000000 1.000000 0.000000
vn 0.001472 0.999998 0.001679
vn 0.006760 0.999959 0.006004
vn 0.002214 0.999619 0.027497
vn -0.005550 0.999885 0.014105
vn -0.001016 0.999999 0.001251
vn -0.005586 0.999977 0.003888
vn 0.000000 1.000000 -0.000000
vn 0.000000 1.000000 -0.000000
vn -0.633644 0.000000 -0.773625
vn -0.633644 0.000000 -0.773625
vn -0.633644 0.000000 -0.773625
vn -0.633644 0.000000 -0.773625
vn -0.926310 0.000000 -0.376761
vn -0.926310 0.000000 -0.376761
vn -0.926310 0.000000 -0.376761
vn -0.926310 0.000000 -0.376761
vn -0.020311 0.000000 -0.999794
vn -0.020311 0.000000 -0.999794
vn -0.020311 0.000000 -0.999794
vn -0.020311 0.000000 -0.999794
vn 0.916814 0.000000 -0.399315
vn 0.916814 0.000000 -0.399315
vn 0.916814 0.000000 -0.399315
vn 0.916814 0.000000 -0.399315
vn 0.607535 0.000000 -0.794293
vn 0.607535 0.000000 -0.794293
vn 0.607535 0.000000 -0.794293
vn 0.607535 0.000000 -0.794293
vn -0.125147 -0.025395 0.991813
vn -0.125148 -0.025368 0.991814
vn -0.125366 -0.014838 0.992000
vn -0.125366 -0.014838 0.992000
vn 0.633643 0.000000 0.773625
vn 0.633643 0.000000 0.773625
vn 0.633643 0.000000 0.773625
vn 0.633643 0.000000 0.773625
vn 0.926310 0.000000 0.376762
vn 0.926310 0.000000 0.376762
vn 0.926310 0.000000 0.376762
vn 0.926310 0.000000 0.376762
vn -0.973547 -0.020625 0.227555
vn -0.973547 -0.020625 0.227554
vn -0.973547 -0.020625 0.227554
vn -0.973547 -0.020625 0.227554
vn 0.999942 0.000000 -0.010803
vn 0.999942 0.000000 -0.010803
vn 0.999942 0.000000 -0.010803
vn 0.999942 0.000000 -0.010803
vn 0.013195 -0.999912 -0.001485
vn 0.012556 -0.999921 -0.000529
vn 0.006719 -0.999944 0.008203
vn 0.001354 -0.999960 -0.008844
vn 0.001350 -0.999965 -0.008311
vn 0.001317 -0.999993 -0.003573
vn 0.001317 -0.999993 -0.003573
vn -0.000687 -0.999999 0.001331
vn -0.000692 -0.999999 0.001268
vn -0.000738 -0.999999 0.000758
vn -0.000738 -0.999999 0.000758
vn 0.000000 -1.000000 -0.000000
vn 0.000000 -1.000000 -0.000000
vn 0.000000 -1.000000 0.000000
vn 0.000000 -1.000000 0.000000
vn 0.000000 -1.000000 -0.000000
vn 0.000000 -1.000000 -0.000000
vn 0.000000 -1.000000 -0.000000
vn -0.026456 0.998787 0.041533
vn -0.032379 0.998494 0.044293
vn -0.039949 0.998057 0.047819
vn -0.039949 0.998057 0.047819
vn -0.027079 0.998289 0.051832
vn -0.026765 0.998309 0.051602
vn -0.032731 0.997896 0.055971
vn -0.032731 0.997896 0.055971
vn -0.022597 0.998902 0.041033
vn -0.022482 0.998908 0.040953
vn -0.024709 0.998591 0.046966
vn -0.024818 0.998588 0.046966
vn -0.034195 0.998285 0.047519
vn -0.035275 0.998241 0.047659
vn -0.031432 0.998393 0.047162
vn -0.031432 0.998393 0.047162
vn -0.038329 0.998109 0.048053
vn -0.038329 0.998109 0.048053
vn -0.018864 0.999542 0.023643
vn -0.018547 0.999400 0.029263
vn -0.020228 0.999795 -0.000665
vn -0.020228 0.999795 -0.000665
vn -0.017392 0.998616 0.049637
vn -0.017392 0.998616 0.049637
vn 0.026456 -0.998787 -0.041533
vn 0.039949 -0.998057 -0.047818
vn 0.039949 -0.998057 -0.047818
vn 0.032379 -0.998494 -0.044293
vn 0.027079 -0.998289 -0.051832
vn 0.032730 -0.997896 -0.055971
vn 0.032730 -0.997896 -0.055971
vn 0.026765 -0.998309 -0.051602
vn 0.022482 -0.998908 -0.040953
vn 0.022597 -0.998902 -0.041032
vn 0.024819 -0.998588 -0.046965
vn 0.024709 -0.998591 -0.046965
vn 0.034195 -0.998285 -0.047519
vn 0.031432 -0.998393 -0.047162
vn 0.031432 -0.998393 -0.047162
vn 0.035275 -0.998241 -0.047659
vn 0.038329 -0.998109 -0.048053
vn 0.038329 -0.998109 -0.048053
vn 0.018863 -0.999543 -0.023642
vn 0.020228 -0.999795 0.000666
vn 0.020228 -0.999795 0.000666
vn 0.018546 -0.999400 -0.029263
vn 0.017391 -0.998616 -0.049636
vn 0.017391 -0.998616 -0.049636
vn -0.873724 -0.050044 0.483842
vn -0.873724 -0.050044 0.483841
vn -0.873724 -0.050044 0.483842
vn -0.873724 -0.050044 0.483842
vn -0.006936 0.046770 -0.998882
vn -0.006936 0.046770 -0.998882
vn -0.006936 0.046770 -0.998882
vn -0.006936 0.046770 -0.998882
vn -0.526201 -0.056346 0.848491
vn -0.526201 -0.056346 0.848491
vn -0.526201 -0.056346 0.848491
vn -0.526201 -0.056346 0.848491
vn -0.026330 -0.047791 0.998510
vn -0.026330 -0.047791 0.998510
vn -0.026330 -0.047791 0.998510
vn -0.026330 -0.047791 0.998510
vn -0.041930 0.045640 -0.998078
vn -0.041877 0.045642 -0.998080
vn -0.048081 0.045436 -0.997809
vn -0.048081 0.045436 -0.997809
vn -0.991850 -0.036714 0.122004
vn -0.991850 -0.036714 0.122004
vn -0.991850 -0.036714 0.122004
vn -0.991850 -0.036714 0.122004
vn 0.971432 0.041333 -0.233693
vn 0.971432 0.041333 -0.233693
vn 0.971432 0.041333 -0.233693
vn 0.971432 0.041333 -0.233693
vn -0.946367 -0.044606 0.320000
vn -0.946367 -0.044606 0.320000
vn -0.946367 -0.044606 0.320000
vn -0.946367 -0.044605 0.320000
vn 0.990292 0.037228 -0.133927
vn 0.990292 0.037228 -0.133927
vn 0.990292 0.037228 -0.133927
vn 0.990292 0.037228 -0.133927
vn -0.317570 -0.054446 0.946670
vn -0.317570 -0.054446 0.946670
vn -0.317570 -0.054446 0.946670
vn -0.317570 -0.054446 0.946670
vn 0.999513 0.031189 0.000567
vn 0.999513 0.031189 0.000567
vn 0.999513 0.031189 0.000567
vn 0.999513 0.031189 0.000567
vn -0.906693 -0.048025 0.419049
vn -0.906693 -0.048025 0.419049
vn -0.906693 -0.048025 0.419049
vn -0.906693 -0.048025 0.419049
vn 0.931959 0.046022 -0.359632
vn 0.931959 0.046022 -0.359632
vn 0.931959 0.046022 -0.359632
vn 0.931959 0.046022 -0.359632
vn 0.450326 0.055981 -0.891107
vn 0.450326 0.055981 -0.891107
vn 0.450326 0.055981 -0.891107
vn 0.450326 0.055981 -0.891107
vn 0.050219 -0.996894 0.060673
vn 0.050219 -0.996894 0.060673
vn 0.050219 -0.996894 0.060673
vn 0.050219 -0.996894 0.060673
vn 0.223557 0.052763 -0.973262
vn 0.223557 0.052763 -0.973262
vn 0.223557 0.052763 -0.973262
vn 0.223557 0.052763 -0.973262
vn -0.050220 0.996894 -0.060672
vn -0.050220 0.996894 -0.060672
vn -0.050220 0.996894 -0.060672
vn -0.050220 0.996894 -0.060672
vn 0.134752 -0.042359 0.989974
vn 0.134752 -0.042359 0.989974
vn 0.134752 -0.042359 0.989974
vn 0.134752 -0.042359 0.989974
vn 0.033542 -0.998333 -0.046961
vn 0.033548 -0.998333 -0.046961
vn 0.999513 0.031188 0.000584
vn 0.999513 0.031188 0.000584
vn 0.999513 0.031188 0.000584
vn 0.999513 0.031188 0.000584
vn -0.033548 0.998333 0.046961
vn -0.033542 0.998333 0.046961
vn -0.033589 0.998332 0.046962
vn -0.033596 0.998332 0.046962
vn -0.027383 0.046115 -0.998561
vn -0.027385 0.046115 -0.998561
vn 0.033596 -0.998332 -0.046961
vn 0.033589 -0.998332 -0.046961
vn 0.033864 -0.998323 -0.046961
vn 0.033864 -0.998323 -0.046961
vn -0.011096 -0.047328 0.998818
vn -0.011096 -0.047328 0.998818
vn -0.011096 -0.047328 0.998818
vn -0.011096 -0.047328 0.998818
vn -0.033864 0.998323 0.046961
vn -0.033864 0.998323 0.046961
vn -0.033864 0.998323 0.046962
vn -0.033864 0.998323 0.046962
vn -0.026858 0.046132 -0.998574
vn -0.026858 0.046132 -0.998574
vn 0.033864 -0.998323 -0.046961
vn 0.033864 -0.998323 -0.046961
vn -0.987004 -0.023347 -0.158993
vn -0.987004 -0.023347 -0.158993
vn -0.987004 -0.023347 -0.158993
vn -0.987004 -0.023347 -0.158993
vn 0.031220 -0.998259 -0.050045
vn 0.031220 -0.998259 -0.050045
vn 0.031220 -0.998259 -0.050045
vn 0.031220 -0.998259 -0.050045
vn 0.987004 0.023346 0.158995
vn 0.987003 0.023346 0.158995
vn 0.987003 0.023346 0.158995
vn 0.987003 0.023346 0.158995
vn -0.031220 0.998259 0.050045
vn -0.031220 0.998259 0.050045
vn -0.031220 0.998259 0.050045
vn -0.031220 0.998259 0.050045
vn -0.984570 -0.038778 0.170640
vn -0.984570 -0.038778 0.170640
vn -0.984570 -0.038778 0.170640
vn -0.984570 -0.038778 0.170640
vn 0.031136 -0.998563 -0.043609
vn 0.031136 -0.998563 -0.043609
vn 0.031136 -0.998563 -0.043609
vn 0.031136 -0.998563 -0.043609
vn 0.984570 0.038777 -0.170640
vn 0.984570 0.038777 -0.170640
vn 0.984570 0.038777 -0.170640
vn 0.984570 0.038777 -0.170640
vn -0.031136 0.998563 0.043609
vn -0.031136 0.998563 0.043609
vn -0.031136 0.998563 0.043609
vn -0.031136 0.998563 0.043609
vn -0.605177 -0.056256 0.794101
vn -0.605177 -0.056256 0.794101
vn -0.605177 -0.056256 0.794101
vn -0.605177 -0.056256 0.794101
vn 0.034184 -0.999027 -0.027882
vn 0.034184 -0.999027 -0.027882
vn 0.034184 -0.999027 -0.027882
vn 0.034184 -0.999027 -0.027882
vn 0.738352 0.054678 -0.672196
vn 0.738352 0.054678 -0.672196
vn 0.738352 0.054678 -0.672196
vn 0.738352 0.054678 -0.672196
vn -0.034183 0.999027 0.027882
vn -0.034183 0.999027 0.027882
vn -0.034183 0.999027 0.027882
vn -0.034183 0.999027 0.027882
vn -0.254298 -0.053366 0.965652
vn -0.254298 -0.053366 0.965652
vn -0.254298 -0.053366 0.965652
vn -0.254298 -0.053366 0.965652
vn 0.048086 -0.998049 -0.039818
vn 0.048086 -0.998049 -0.039818
vn 0.048086 -0.998049 -0.039818
vn 0.048086 -0.998049 -0.039818
vn 0.394702 0.055467 -0.917134
vn 0.394702 0.055467 -0.917134
vn 0.394702 0.055467 -0.917134
vn 0.394702 0.055467 -0.917134
vn -0.048086 0.998049 0.039817
vn -0.048086 0.998049 0.039817
vn -0.048086 0.998049 0.039817
vn -0.048086 0.998049 0.039817
vn -0.124820 -0.040075 0.991370
vn -0.124820 -0.040075 0.991370
vn 0.017008 -0.999351 -0.031743
vn 0.017008 -0.999351 -0.031743
vn 0.015717 -0.999770 -0.014580
vn 0.015639 -0.999786 -0.013545
vn -0.000215 -0.999400 -0.034623
vn -0.000215 -0.999400 -0.034623
vn 0.000911 -0.999766 -0.021634
vn 0.000823 -0.999743 -0.022645
vn -0.000413 -0.999997 0.002597
vn -0.000413 -0.999997 0.002597
vn -0.000524 -0.999997 0.002233
vn -0.000507 -0.999997 0.002288
vn 0.000000 -1.000000 0.000000
vn 0.000000 -1.000000 0.000000
vn 0.000000 -1.000000 -0.000000
vn 0.000000 -1.000000 -0.000000
vn 0.000000 -1.000000 0.000000
vn 0.000000 -1.000000 0.000000
vn 0.000000 -1.000000 0.000000
vn -0.011854 0.999497 0.029430
vn -0.014462 0.999797 0.014021
vn -0.012919 0.999904 0.005093
s 1
g polySurface2
usemtl initialShadingGroup
f 13/1/1 14/2/2 15/3/3 16/4/4
f 15/3/3 14/2/2 17/5/5 18/6/6
f 18/6/6 17/5/5 19/7/7 20/8/8
f 24/12/9 22/9/10 21/10/11 99/147/12
f 25/13/13 24/12/9 99/147/12 100/148/14
f 27/15/15 25/13/13 100/148/14 28/16/16
f 22/9/10 24/12/9 14/2/2 13/1/1
f 17/5/5 14/2/2 24/12/9 25/13/13
f 19/7/7 17/5/5 25/13/13 27/15/15
s off
f 6/17/17 3/18/18 16/4/19 15/3/20
f 3/18/21 11/19/22 13/1/23 16/4/24
f 8/20/25 6/17/26 15/3/27 18/6/28
f 12/21/29 4/22/30 20/8/31 19/7/32
f 4/22/33 8/20/34 18/6/35 20/8/36
s 2
f 89/137/37 90/138/38 7/26/39 26/14/40
s off
f 7/26/41 2/27/42 28/16/43 26/14/44
f 2/27/45 10/28/46 27/15/47 28/16/48
f 11/19/49 9/23/50 22/9/51 13/1/52
f 10/28/53 12/21/54 19/7/55 27/15/56
s 3
f 7/26/57 95/143/58 2/27/59
s 4
f 95/143/60 96/144/61 10/28/62 2/27/63
s 5
f 96/144/64 97/145/65 12/21/66 10/28/67
s 6
f 97/145/68 98/146/69 4/22/70 12/21/71
s 7
f 98/146/72 8/20/73 4/22/74
s 8
f 43/29/75 44/30/76 45/31/77 46/32/78
s 9
f 44/33/79 47/34/80 48/35/81 45/36/82
s 8
f 63/37/83 64/38/84 44/30/76 43/29/75
s 9
f 64/39/85 65/40/86 47/34/80 44/33/79
s 10
f 49/41/87 50/42/88 51/43/89 52/44/90
f 43/45/91 46/46/92 50/42/88 49/41/87
s 11
f 53/47/93 54/48/94 55/49/95 56/50/96
f 52/51/97 51/52/98 54/48/94 53/47/93
s 12
f 32/53/99 30/54/100 29/55/101 33/56/102
s 13
f 33/57/103 29/58/104 31/59/105 34/60/106
s 12
f 61/61/107 62/62/108 32/53/99 33/56/102
s 13
f 66/63/109 61/64/110 33/57/103 34/60/106
s 14
f 37/65/111 35/66/112 36/67/113 38/68/114
f 32/69/115 37/65/111 38/68/114 30/70/116
s 15
f 41/71/117 39/72/118 40/73/119 42/74/120
f 35/75/121 41/71/117 42/74/120 36/76/122
s off
f 29/77/123 30/78/124 46/32/125 45/31/126
f 34/79/127 31/80/128 48/35/129 47/34/130
f 31/80/131 29/81/132 45/36/133 48/35/134
f 32/82/135 62/83/136 63/37/137 43/29/138
s 16
f 65/40/139 66/84/140 34/79/141 47/34/142
s off
f 38/85/143 36/86/144 51/43/145 50/42/146
f 35/87/147 37/88/148 49/41/149 52/44/150
f 30/89/151 38/85/152 50/42/153 46/46/154
f 37/88/155 32/90/156 43/45/157 49/41/158
f 42/91/159 40/92/160 55/49/161 54/48/162
f 58/93/163 57/94/164 59/95/165 60/96/166
f 36/97/167 42/91/168 54/48/169 51/52/170
f 41/98/171 35/99/172 52/51/173 53/47/174
f 39/72/175 41/98/176 53/47/177 56/50/178
f 40/92/179 39/100/180 57/94/181 58/93/182
f 39/100/183 56/50/184 59/95/185 57/94/186
f 56/50/187 55/49/188 60/96/189 59/95/190
f 55/49/191 40/92/192 58/93/193 60/96/194
s 12
f 67/101/195 68/102/196 62/62/108 61/61/107
s off
f 86/103/197 85/104/198 87/105/199 88/106/200
s 8
f 69/107/201 70/108/202 64/38/84 63/37/83
s 9
f 70/109/203 71/110/204 65/40/86 64/39/85
s 16
f 71/110/205 72/111/206 66/84/140 65/40/139
s 13
f 72/112/207 67/113/208 61/64/110 66/63/109
s 12
f 5/114/209 68/102/196 67/101/195 1/115/210
s off
f 69/107/211 68/116/212 5/117/213 23/118/214
s 8
f 23/118/215 21/119/216 70/108/202 69/107/201
s 9
f 21/120/217 22/121/218 71/110/204 70/109/203
s 16
f 9/122/219 72/111/206 71/110/205 22/121/220
s 13
f 1/123/221 67/113/208 72/112/207 9/124/222
s off
f 63/37/223 62/83/224 73/125/225 74/126/226
f 62/83/227 68/116/228 75/127/229 73/125/230
f 68/116/231 69/107/232 76/128/233 75/127/234
f 69/107/235 63/37/236 74/126/237 76/128/238
f 74/126/239 73/125/240 77/129/241 78/130/242
f 73/125/243 75/127/244 79/131/245 77/129/246
f 75/127/247 76/128/248 80/132/249 79/131/250
f 76/128/251 74/126/252 78/130/253 80/132/254
f 78/130/255 77/129/256 81/133/257 82/134/258
f 77/129/259 79/131/260 83/135/261 81/133/262
f 79/131/263 80/132/264 84/136/265 83/135/266
f 80/132/267 78/130/268 82/134/269 84/136/270
f 82/134/271 81/133/272 85/104/273 86/103/274
f 81/133/275 83/135/276 87/105/277 85/104/278
f 83/135/279 84/136/280 88/106/281 87/105/282
f 84/136/283 82/134/284 86/103/285 88/106/286
s 2
f 5/25/287 90/138/38 89/137/37 23/11/288
s 3
f 5/25/289 1/24/290 91/139/291 90/138/292
s 4
f 1/24/293 9/23/294 92/140/295 91/139/296
s 5
f 9/23/297 11/19/298 93/141/299 92/140/300
s 6
f 11/19/301 3/18/302 94/142/303 93/141/304
s 7
f 3/18/305 6/17/306 94/142/307
s 3
f 90/138/292 91/139/291 95/143/58 7/26/57
s 4
f 91/139/296 92/140/295 96/144/61 95/143/60
s 5
f 92/140/300 93/141/299 97/145/65 96/144/64
s 6
f 93/141/304 94/142/303 98/146/69 97/145/68
s 7
f 94/142/307 6/17/306 8/20/73 98/146/72
s 1
f 99/147/12 21/10/11 23/11/308 89/137/309
f 100/148/14 99/147/12 89/137/309 26/14/310
f 28/16/16 100/148/14 26/14/310
