# This file uses centimeters as units for non-parametric coordinates.

mtllib yaos.mtl
g default
v 7.258116 0.595117 -226.889288
v 3.746503 1.325254 -224.027360
v 2.142717 1.658714 -218.555462
v 3.432468 1.390548 -212.997619
v 7.270156 0.592614 -208.843051
v 12.627478 -0.521283 -207.204971
v 18.068945 -1.652676 -208.522301
v 22.136506 -2.498405 -212.442064
v 23.740301 -2.831867 -217.913962
v 22.450540 -2.563699 -223.471805
v 19.107680 -1.868650 -226.537327
v 13.203312 -0.641011 -227.429842
v 7.760793 3.012757 -226.889288
v 4.249180 3.742894 -224.027360
v 2.645394 4.076354 -218.555462
v 3.935145 3.808188 -212.997619
v 7.772833 3.010254 -208.843051
v 13.130155 1.896357 -207.204971
v 18.571622 0.764964 -208.522301
v 22.639183 -0.080765 -212.442064
v 24.242978 -0.414227 -217.913962
v 22.953217 -0.146059 -223.471805
v 19.610357 0.548990 -226.537327
v 13.705989 1.776629 -227.429842
v 10.661940 -0.112598 -222.552699
v 8.853553 0.263403 -220.810031
v 8.140541 0.411653 -218.377312
v 8.713938 0.292432 -215.906384
v 10.420120 -0.062318 -214.059325
v 12.801899 -0.557539 -213.331065
v 15.221088 -1.060538 -213.916725
v 17.029464 -1.436537 -215.659393
v 17.742482 -1.584788 -218.092111
v 17.169079 -1.465565 -220.563040
v 15.462908 -1.110817 -222.410098
v 13.081128 -0.615597 -223.138359
v 11.164613 2.305024 -222.552699
v 9.356226 2.681024 -220.810031
v 8.643214 2.829274 -218.377312
v 9.216612 2.710053 -215.906384
v 10.922793 2.355303 -214.059325
v 13.304572 1.860082 -213.331065
v 15.723761 1.357083 -213.916725
v 17.532137 0.981085 -215.659393
v 18.245155 0.832834 -218.092111
v 17.671752 0.952056 -220.563040
v 15.965581 1.306804 -222.410098
v 13.583802 1.802025 -223.138359
v 16.474458 -1.321149 -248.942421
v 13.818056 -0.768829 -249.021336
v 14.320733 1.648811 -249.021336
v 16.977135 1.096491 -248.942421
v 11.161653 -0.216508 -249.100225
v 11.664330 2.201132 -249.100225
v 16.618519 -1.351102 -254.002241
v 13.962117 -0.798782 -254.081161
v 14.464794 1.618858 -254.081161
v 17.121196 1.066538 -254.002241
v 11.305714 -0.246461 -254.160045
v 11.808391 2.171179 -254.160045
v 15.873877 -1.196276 -227.848386
v 13.217475 -0.643956 -227.927302
v 10.561073 -0.091635 -228.006189
v 11.063750 2.326005 -228.006189
v 13.720152 1.773684 -227.927302
v 16.376554 1.221364 -227.848386
v 16.782275 -1.385151 -259.753824
v 14.125873 -0.832830 -259.832738
v 14.628550 1.584810 -259.832738
v 17.284952 1.032489 -259.753824
v 11.469471 -0.280510 -259.911627
v 11.972148 2.137130 -259.911627
v 16.922085 -1.414220 -264.664335
v 14.265683 -0.861900 -264.743247
v 14.768360 1.555740 -264.743247
v 17.424762 1.003420 -264.664335
v 11.609281 -0.309579 -264.822138
v 12.111958 2.108061 -264.822138
v 24.793950 -3.050942 -248.695312
v 25.296627 -0.633302 -248.695312
v 24.938011 -3.080896 -253.755132
v 25.440688 -0.663256 -253.755132
v 28.877929 -3.900085 -259.394553
v 29.380606 -1.482445 -259.394553
v 29.017739 -3.929155 -264.305064
v 29.520416 -1.511515 -264.305064
vt 0.375000 0.312500
vt 0.395833 0.312500
vt 0.416667 0.312500
vt 0.437500 0.312500
vt 0.458333 0.312500
vt 0.479167 0.312500
vt 0.500000 0.312500
vt 0.520833 0.312500
vt 0.541667 0.312500
vt 0.562500 0.312500
vt 0.583333 0.312500
vt 0.604167 0.312500
vt 0.625000 0.312500
vt 0.375000 0.688440
vt 0.395833 0.688440
vt 0.416667 0.688440
vt 0.437500 0.688440
vt 0.458333 0.688440
vt 0.479167 0.688440
vt 0.500000 0.688440
vt 0.520833 0.688440
vt 0.541667 0.688440
vt 0.562500 0.688440
vt 0.583333 0.688440
vt 0.604167 0.688440
vt 0.625000 0.688440
vt 0.000000 0.000000
vt 1.000000 0.000000
vt 1.000000 1.000000
vt 0.000000 1.000000
vt 0.000000 0.000000
vt 1.000000 0.000000
vt 1.000000 1.000000
vt 0.000000 1.000000
vt 0.000000 0.000000
vt 1.000000 0.000000
vt 1.000000 1.000000
vt 0.000000 1.000000
vt 0.000000 0.000000
vt 1.000000 0.000000
vt 1.000000 1.000000
vt 0.000000 1.000000
vt 0.000000 0.000000
vt 1.000000 0.000000
vt 1.000000 1.000000
vt 0.000000 1.000000
vt 0.000000 0.000000
vt 1.000000 0.000000
vt 1.000000 1.000000
vt 0.000000 1.000000
vt 0.000000 0.000000
vt 1.000000 0.000000
vt 1.000000 1.000000
vt 0.000000 1.000000
vt 0.000000 0.000000
vt 1.000000 0.000000
vt 1.000000 1.000000
vt 0.000000 1.000000
vt 0.000000 0.000000
vt 1.000000 0.000000
vt 1.000000 1.000000
vt 0.000000 1.000000
vt 0.000000 0.000000
vt 1.000000 0.000000
vt 1.000000 1.000000
vt 0.000000 1.000000
vt 0.000000 0.000000
vt 1.000000 0.000000
vt 1.000000 1.000000
vt 0.000000 1.000000
vt 0.000000 0.000000
vt 1.000000 0.000000
vt 1.000000 1.000000
vt 0.000000 1.000000
vt 0.000000 0.000000
vt 1.000000 0.000000
vt 1.000000 1.000000
vt 0.000000 1.000000
vt 0.000000 0.000000
vt 1.000000 0.000000
vt 1.000000 1.000000
vt 0.000000 1.000000
vt 0.000000 0.000000
vt 1.000000 0.000000
vt 1.000000 1.000000
vt 0.000000 1.000000
vt 0.000000 0.000000
vt 1.000000 0.000000
vt 1.000000 1.000000
vt 0.000000 1.000000
vt 0.000000 0.000000
vt 1.000000 0.000000
vt 1.000000 1.000000
vt 0.000000 1.000000
vt 0.000000 0.000000
vt 1.000000 0.000000
vt 1.000000 1.000000
vt 0.000000 1.000000
vt 0.000000 0.000000
vt 1.000000 0.000000
vt 1.000000 1.000000
vt 0.000000 1.000000
vt 0.000000 0.000000
vt 1.000000 0.000000
vt 1.000000 1.000000
vt 0.000000 1.000000
vt 0.000000 0.000000
vt 1.000000 0.000000
vt 1.000000 1.000000
vt 0.000000 1.000000
vt 0.000000 0.000000
vt 1.000000 0.000000
vt 1.000000 1.000000
vt 0.000000 1.000000
vt 0.000000 0.000000
vt 1.000000 0.000000
vt 1.000000 1.000000
vt 0.000000 1.000000
vt 0.000000 0.000000
vt 1.000000 0.000000
vt 1.000000 1.000000
vt 0.000000 1.000000
vt 0.583333 0.312500
vt 0.604167 0.312500
vt 0.604167 0.688440
vt 0.583333 0.688440
vt 0.625000 0.312500
vt 0.625000 0.688440
vt 0.583333 0.312500
vt 0.604167 0.312500
vt 0.604167 0.688440
vt 0.583333 0.688440
vt 0.625000 0.312500
vt 0.625000 0.688440
vt 0.583333 0.312500
vt 0.604167 0.312500
vt 0.625000 0.312500
vt 0.625000 0.688440
vt 0.604167 0.688440
vt 0.583333 0.688440
vt 0.583333 0.312500
vt 0.604167 0.312500
vt 0.604167 0.688440
vt 0.583333 0.688440
vt 0.625000 0.312500
vt 0.625000 0.688440
vt 0.583333 0.312500
vt 0.604167 0.312500
vt 0.604167 0.688440
vt 0.583333 0.688440
vt 0.625000 0.312500
vt 0.625000 0.688440
vt 0.583333 0.688440
vt 0.583333 0.312500
vt 0.583333 0.312500
vt 0.583333 0.688440
vt 0.583333 0.688440
vt 0.583333 0.312500
vt 0.583333 0.312500
vt 0.583333 0.688440
vn -0.610646 0.126966 -0.781660
vn -0.610646 0.126966 -0.781660
vn -0.610646 0.126966 -0.781660
vn -0.610646 0.126966 -0.781660
vn -0.937935 0.195016 -0.286788
vn -0.937935 0.195016 -0.286788
vn -0.937935 0.195016 -0.286788
vn -0.937935 0.195016 -0.286788
vn -0.952666 0.198079 0.230633
vn -0.952666 0.198079 0.230633
vn -0.952666 0.198079 0.230633
vn -0.952666 0.198079 0.230633
vn -0.712132 0.148067 0.686254
vn -0.712132 0.148067 0.686254
vn -0.712132 0.148067 0.686254
vn -0.712132 0.148067 0.686254
vn -0.280782 0.058380 0.957994
vn -0.280782 0.058380 0.957994
vn -0.280782 0.058380 0.957994
vn -0.280782 0.058380 0.957994
vn 0.225803 -0.046949 0.973041
vn 0.225803 -0.046949 0.973041
vn 0.225803 -0.046949 0.973041
vn 0.225803 -0.046949 0.973041
vn 0.671886 -0.139699 0.727361
vn 0.671886 -0.139699 0.727361
vn 0.671886 -0.139699 0.727361
vn 0.671886 -0.139699 0.727361
vn 0.937934 -0.195016 0.286790
vn 0.937934 -0.195016 0.286790
vn 0.937934 -0.195016 0.286790
vn 0.937934 -0.195016 0.286790
vn 0.952666 -0.198079 -0.230634
vn 0.952666 -0.198079 -0.230634
vn 0.952666 -0.198079 -0.230634
vn 0.952666 -0.198079 -0.230634
vn 0.654085 -0.135998 -0.744095
vn 0.654085 -0.135998 -0.744095
vn 0.654085 -0.135998 -0.744095
vn 0.654085 -0.135998 -0.744095
vn 0.028463 -0.005918 -0.999577
vn 0.028463 -0.005918 -0.999577
vn 0.028463 -0.005918 -0.999577
vn 0.028463 -0.005918 -0.999577
vn 0.028456 -0.005917 -0.999578
vn 0.028456 -0.005917 -0.999578
vn 0.028456 -0.005917 -0.999578
vn 0.028456 -0.005917 -0.999578
vn -0.203566 -0.979061 0.000001
vn -0.203566 -0.979061 0.000001
vn -0.203566 -0.979061 0.000001
vn -0.203566 -0.979061 0.000001
vn -0.203565 -0.979061 0.000000
vn -0.203565 -0.979061 0.000000
vn -0.203565 -0.979061 0.000000
vn -0.203565 -0.979061 0.000000
vn -0.203565 -0.979061 -0.000000
vn -0.203565 -0.979061 -0.000000
vn -0.203565 -0.979061 -0.000000
vn -0.203565 -0.979061 -0.000000
vn -0.203566 -0.979061 -0.000001
vn -0.203566 -0.979061 -0.000001
vn -0.203566 -0.979061 -0.000001
vn -0.203566 -0.979061 -0.000001
vn -0.203566 -0.979061 -0.000002
vn -0.203566 -0.979061 -0.000002
vn -0.203566 -0.979061 -0.000002
vn -0.203566 -0.979061 -0.000002
vn -0.203567 -0.979061 -0.000002
vn -0.203567 -0.979061 -0.000002
vn -0.203567 -0.979061 -0.000002
vn -0.203567 -0.979061 -0.000002
vn -0.203568 -0.979061 -0.000001
vn -0.203568 -0.979061 -0.000001
vn -0.203568 -0.979061 -0.000001
vn -0.203568 -0.979061 -0.000001
vn -0.203568 -0.979061 -0.000000
vn -0.203568 -0.979061 -0.000000
vn -0.203568 -0.979061 -0.000000
vn -0.203568 -0.979061 -0.000000
vn -0.203568 -0.979061 0.000000
vn -0.203568 -0.979061 0.000000
vn -0.203568 -0.979061 0.000000
vn -0.203568 -0.979061 0.000000
vn -0.203568 -0.979061 0.000001
vn -0.203568 -0.979061 0.000001
vn -0.203568 -0.979061 0.000001
vn -0.203568 -0.979061 0.000001
vn -0.203567 -0.979061 0.000002
vn -0.203567 -0.979061 0.000002
vn -0.203567 -0.979061 0.000002
vn -0.203567 -0.979061 0.000002
vn -0.203567 -0.979061 0.000002
vn -0.203567 -0.979061 0.000002
vn -0.203567 -0.979061 0.000002
vn -0.203567 -0.979061 0.000002
vn 0.203568 0.979061 0.000001
vn 0.203568 0.979061 0.000001
vn 0.203568 0.979061 0.000001
vn 0.203568 0.979061 0.000001
vn 0.203568 0.979061 0.000000
vn 0.203568 0.979061 0.000000
vn 0.203568 0.979061 0.000000
vn 0.203568 0.979061 0.000000
vn 0.203568 0.979061 -0.000000
vn 0.203568 0.979061 -0.000000
vn 0.203568 0.979061 -0.000000
vn 0.203568 0.979061 -0.000000
vn 0.203568 0.979061 -0.000001
vn 0.203568 0.979061 -0.000001
vn 0.203568 0.979061 -0.000001
vn 0.203568 0.979061 -0.000001
vn 0.203567 0.979061 -0.000002
vn 0.203567 0.979061 -0.000002
vn 0.203567 0.979061 -0.000002
vn 0.203567 0.979061 -0.000002
vn 0.203567 0.979061 -0.000002
vn 0.203567 0.979061 -0.000002
vn 0.203567 0.979061 -0.000002
vn 0.203567 0.979061 -0.000002
vn 0.203566 0.979061 -0.000001
vn 0.203566 0.979061 -0.000001
vn 0.203566 0.979061 -0.000001
vn 0.203566 0.979061 -0.000001
vn 0.203565 0.979061 -0.000000
vn 0.203565 0.979061 -0.000000
vn 0.203565 0.979061 -0.000000
vn 0.203565 0.979061 -0.000000
vn 0.203565 0.979061 0.000000
vn 0.203565 0.979061 0.000000
vn 0.203565 0.979061 0.000000
vn 0.203565 0.979061 0.000000
vn 0.203566 0.979061 0.000001
vn 0.203566 0.979061 0.000001
vn 0.203566 0.979061 0.000001
vn 0.203566 0.979061 0.000001
vn 0.203566 0.979061 0.000002
vn 0.203566 0.979061 0.000002
vn 0.203566 0.979061 0.000002
vn 0.203566 0.979061 0.000002
vn 0.203567 0.979061 0.000002
vn 0.203567 0.979061 0.000002
vn 0.203567 0.979061 0.000002
vn 0.203567 0.979061 0.000002
vn 0.671883 -0.139698 0.727363
vn 0.671883 -0.139698 0.727363
vn 0.671883 -0.139698 0.727363
vn 0.671883 -0.139698 0.727363
vn 0.225801 -0.046949 0.973041
vn 0.225801 -0.046949 0.973041
vn 0.225801 -0.046949 0.973041
vn 0.225801 -0.046949 0.973041
vn -0.280781 0.058380 0.957995
vn -0.280781 0.058380 0.957995
vn -0.280781 0.058380 0.957995
vn -0.280781 0.058380 0.957995
vn -0.712133 0.148067 0.686252
vn -0.712133 0.148067 0.686252
vn -0.712133 0.148067 0.686252
vn -0.712133 0.148067 0.686252
vn -0.952666 0.198079 0.230633
vn -0.952666 0.198079 0.230633
vn -0.952666 0.198079 0.230633
vn -0.952666 0.198079 0.230633
vn -0.937935 0.195016 -0.286788
vn -0.937935 0.195016 -0.286788
vn -0.937935 0.195016 -0.286788
vn -0.937935 0.195016 -0.286788
vn -0.671886 0.139699 -0.727361
vn -0.671886 0.139699 -0.727361
vn -0.671886 0.139699 -0.727361
vn -0.671886 0.139699 -0.727361
vn -0.225801 0.046949 -0.973041
vn -0.225801 0.046949 -0.973041
vn -0.225801 0.046949 -0.973041
vn -0.225801 0.046949 -0.973041
vn 0.280781 -0.058380 -0.957995
vn 0.280781 -0.058380 -0.957995
vn 0.280781 -0.058380 -0.957995
vn 0.280781 -0.058380 -0.957995
vn 0.712131 -0.148067 -0.686255
vn 0.712131 -0.148067 -0.686255
vn 0.712131 -0.148067 -0.686255
vn 0.712131 -0.148067 -0.686255
vn 0.952667 -0.198079 -0.230631
vn 0.952667 -0.198079 -0.230631
vn 0.952667 -0.198079 -0.230631
vn 0.952667 -0.198079 -0.230631
vn 0.937935 -0.195016 0.286786
vn 0.937935 -0.195016 0.286786
vn 0.937935 -0.195016 0.286786
vn 0.937935 -0.195016 0.286786
vn -0.203567 -0.979061 -0.000000
vn -0.203567 -0.979061 -0.000000
vn -0.203567 -0.979061 -0.000000
vn -0.203567 -0.979061 -0.000000
vn 0.203567 0.979061 -0.000000
vn 0.203567 0.979061 -0.000000
vn 0.203567 0.979061 -0.000000
vn 0.203567 0.979061 -0.000000
vn 0.972082 -0.202116 -0.119186
vn 0.972082 -0.202116 -0.119186
vn 0.978647 -0.203481 0.029068
vn 0.978647 -0.203481 0.029068
vn -0.203567 -0.979061 0.000000
vn -0.203567 -0.979061 0.000000
vn -0.203567 -0.979061 0.000000
vn -0.203567 -0.979061 0.000000
vn -0.963658 0.200364 -0.176683
vn -0.963658 0.200364 -0.176683
vn -0.978647 0.203481 -0.029068
vn -0.978647 0.203481 -0.029068
vn 0.203567 0.979061 0.000000
vn 0.203567 0.979061 0.000000
vn 0.203567 0.979061 0.000000
vn 0.203567 0.979061 0.000000
vn -0.203567 -0.979061 0.000000
vn -0.203567 -0.979061 0.000000
vn -0.203567 -0.979061 0.000000
vn -0.203567 -0.979061 0.000000
vn 0.203567 0.979061 0.000000
vn 0.203567 0.979061 0.000000
vn 0.203567 0.979061 0.000000
vn 0.203567 0.979061 0.000000
vn 0.978647 -0.203481 0.029068
vn 0.978647 -0.203481 0.029068
vn 0.978647 -0.203481 0.029068
vn 0.978647 -0.203481 0.029068
vn -0.203567 -0.979061 -0.000000
vn -0.203567 -0.979061 -0.000000
vn -0.203567 -0.979061 -0.000000
vn -0.203567 -0.979061 -0.000000
vn -0.978647 0.203481 -0.029068
vn -0.978647 0.203481 -0.029068
vn -0.978647 0.203481 -0.029068
vn -0.978647 0.203481 -0.029068
vn 0.203567 0.979061 -0.000000
vn 0.203567 0.979061 -0.000000
vn 0.203567 0.979061 -0.000000
vn 0.203567 0.979061 -0.000000
vn -0.203567 -0.979061 0.000000
vn -0.203567 -0.979061 0.000000
vn -0.203567 -0.979061 0.000000
vn -0.203567 -0.979061 0.000000
vn -0.307714 0.063980 -0.949326
vn -0.307714 0.063980 -0.949326
vn 0.203567 0.979061 -0.000000
vn 0.203567 0.979061 -0.000000
vn 0.203567 0.979061 -0.000000
vn 0.203567 0.979061 -0.000000
vn 0.361208 -0.075103 -0.929456
vn 0.361208 -0.075103 -0.929456
vn -0.203567 -0.979061 -0.000000
vn -0.203567 -0.979061 -0.000000
vn -0.203567 -0.979061 -0.000000
vn -0.203567 -0.979061 -0.000000
vn 0.203567 0.979061 -0.000000
vn 0.203567 0.979061 -0.000000
vn 0.203567 0.979061 -0.000000
vn 0.203567 0.979061 -0.000000
vn 0.978647 -0.203481 0.029068
vn 0.978647 -0.203481 0.029068
vn 0.978647 -0.203481 0.029068
vn 0.978647 -0.203481 0.029068
vn -0.203567 -0.979061 0.000000
vn -0.203567 -0.979061 0.000000
vn -0.203567 -0.979061 0.000000
vn -0.203567 -0.979061 0.000000
vn -0.978647 0.203481 -0.029068
vn -0.978647 0.203481 -0.029068
vn -0.978647 0.203481 -0.029068
vn -0.978647 0.203481 -0.029068
vn 0.203567 0.979061 0.000000
vn 0.203567 0.979061 0.000000
vn 0.203567 0.979061 0.000000
vn 0.203567 0.979061 0.000000
vn -0.203567 -0.979061 0.000000
vn -0.203567 -0.979061 0.000000
vn -0.203567 -0.979061 0.000000
vn -0.203567 -0.979061 0.000000
vn 0.203567 0.979061 -0.000000
vn 0.203567 0.979061 -0.000000
vn 0.203567 0.979061 -0.000000
vn 0.203567 0.979061 -0.000000
vn 0.978647 -0.203481 0.029068
vn 0.978647 -0.203481 0.029068
vn 0.978647 -0.203481 0.029068
vn 0.978647 -0.203481 0.029068
vn -0.203567 -0.979061 0.000000
vn -0.203567 -0.979061 0.000000
vn -0.203567 -0.979061 0.000000
vn -0.203567 -0.979061 0.000000
vn -0.978647 0.203481 -0.029068
vn -0.978647 0.203481 -0.029068
vn -0.978647 0.203481 -0.029068
vn -0.978647 0.203481 -0.029068
vn 0.203567 0.979061 -0.000000
vn 0.203567 0.979061 -0.000000
vn 0.203567 0.979061 -0.000000
vn 0.203567 0.979061 -0.000000
vn -0.028460 0.005917 0.999578
vn -0.028460 0.005917 0.999578
vn -0.028460 0.005917 0.999578
vn -0.028460 0.005917 0.999578
vn -0.203567 -0.979061 0.000000
vn -0.203567 -0.979061 0.000000
vn -0.203567 -0.979061 0.000000
vn -0.203567 -0.979061 0.000000
vn 0.028460 -0.005917 -0.999578
vn 0.028460 -0.005917 -0.999578
vn 0.028460 -0.005917 -0.999578
vn 0.028460 -0.005917 -0.999578
vn 0.203567 0.979061 -0.000000
vn 0.203567 0.979061 -0.000000
vn 0.203567 0.979061 -0.000000
vn 0.203567 0.979061 -0.000000
vn -0.028460 0.005917 0.999578
vn -0.028460 0.005917 0.999578
vn -0.028460 0.005917 0.999578
vn -0.028460 0.005917 0.999578
vn -0.203567 -0.979061 0.000000
vn -0.203567 -0.979061 0.000000
vn -0.203567 -0.979061 0.000000
vn -0.203567 -0.979061 0.000000
vn 0.028460 -0.005917 -0.999578
vn 0.028460 -0.005917 -0.999578
vn 0.028460 -0.005917 -0.999578
vn 0.028460 -0.005917 -0.999578
vn 0.203567 0.979061 -0.000000
vn 0.203567 0.979061 -0.000000
vn 0.203567 0.979061 -0.000000
vn 0.203567 0.979061 -0.000000
s off
g pCylinder1
usemtl initialShadingGroup
f 1/1/1 2/2/2 14/15/3 13/14/4
f 2/2/5 3/3/6 15/16/7 14/15/8
f 3/3/9 4/4/10 16/17/11 15/16/12
f 4/4/13 5/5/14 17/18/15 16/17/16
f 5/5/17 6/6/18 18/19/19 17/18/20
f 6/6/21 7/7/22 19/20/23 18/19/24
f 7/7/25 8/8/26 20/21/27 19/20/28
f 8/8/29 9/9/30 21/22/31 20/21/32
f 9/9/33 10/10/34 22/23/35 21/22/36
f 10/10/37 11/11/38 23/24/39 22/23/40
f 73/147/41 74/148/42 75/149/43 76/150/44
f 74/148/45 77/151/46 78/152/47 75/149/48
f 2/27/49 1/28/50 25/29/51 26/30/52
f 3/31/53 2/32/54 26/33/55 27/34/56
f 4/35/57 3/36/58 27/37/59 28/38/60
f 5/39/61 4/40/62 28/41/63 29/42/64
f 6/43/65 5/44/66 29/45/67 30/46/68
f 7/47/69 6/48/70 30/49/71 31/50/72
f 8/51/73 7/52/74 31/53/75 32/54/76
f 9/55/77 8/56/78 32/57/79 33/58/80
f 10/59/81 9/60/82 33/61/83 34/62/84
f 11/63/85 10/64/86 34/65/87 35/66/88
f 12/67/89 11/68/90 35/69/91 36/70/92
f 1/71/93 12/72/94 36/73/95 25/74/96
f 13/75/97 14/76/98 38/77/99 37/78/100
f 14/79/101 15/80/102 39/81/103 38/82/104
f 15/83/105 16/84/106 40/85/107 39/86/108
f 16/87/109 17/88/110 41/89/111 40/90/112
f 17/91/113 18/92/114 42/93/115 41/94/116
f 18/95/117 19/96/118 43/97/119 42/98/120
f 19/99/121 20/100/122 44/101/123 43/102/124
f 20/103/125 21/104/126 45/105/127 44/106/128
f 21/107/129 22/108/130 46/109/131 45/110/132
f 22/111/133 23/112/134 47/113/135 46/114/136
f 23/115/137 24/116/138 48/117/139 47/118/140
f 24/119/141 13/120/142 37/121/143 48/122/144
f 26/30/145 25/29/146 37/78/147 38/77/148
f 25/74/149 36/73/150 48/122/151 37/121/152
f 36/70/153 35/69/154 47/118/155 48/117/156
f 35/66/157 34/65/158 46/114/159 47/113/160
f 34/62/161 33/61/162 45/110/163 46/109/164
f 33/58/165 32/57/166 44/106/167 45/105/168
f 32/54/169 31/53/170 43/102/171 44/101/172
f 31/50/173 30/49/174 42/98/175 43/97/176
f 30/46/177 29/45/178 41/94/179 42/93/180
f 29/42/181 28/41/182 40/90/183 41/89/184
f 28/38/185 27/37/186 39/86/187 40/85/188
f 27/34/189 26/33/190 38/82/191 39/81/192
s 1
f 61/135/193 62/136/194 50/124/195 49/123/196
s 2
f 65/139/197 66/140/198 52/126/199 51/125/200
s 3
f 66/140/201 61/135/202 49/123/203 52/126/204
s 4
f 62/136/205 63/137/206 53/127/207 50/124/208
s 5
f 63/137/209 64/138/210 54/128/211 53/127/212
s 6
f 64/138/213 65/139/214 51/125/215 54/128/216
s off
f 49/123/217 50/124/218 56/130/219 55/129/220
f 51/125/221 52/126/222 58/132/223 57/131/224
f 80/153/225 79/154/226 81/155/227 82/156/228
f 50/124/229 53/127/230 59/133/231 56/130/232
f 53/127/233 54/128/234 60/134/235 59/133/236
f 54/128/237 51/125/238 57/131/239 60/134/240
s 1
f 11/11/241 12/12/242 62/136/194 61/135/193
s 4
f 12/12/243 1/13/244 63/137/206 62/136/205
s 5
f 1/13/245 13/26/246 64/138/210 63/137/209
s 6
f 13/26/247 24/25/248 65/139/214 64/138/213
s 2
f 24/25/249 23/24/250 66/140/198 65/139/197
s 3
f 23/24/251 11/11/252 61/135/202 66/140/201
s off
f 55/129/253 56/130/254 68/142/255 67/141/256
f 57/131/257 58/132/258 70/144/259 69/143/260
f 58/132/261 55/129/262 67/141/263 70/144/264
f 56/130/265 59/133/266 71/145/267 68/142/268
f 59/133/269 60/134/270 72/146/271 71/145/272
f 60/134/273 57/131/274 69/143/275 72/146/276
f 67/141/277 68/142/278 74/148/279 73/147/280
f 69/143/281 70/144/282 76/150/283 75/149/284
f 84/157/285 83/158/286 85/159/287 86/160/288
f 68/142/289 71/145/290 77/151/291 74/148/292
f 71/145/293 72/146/294 78/152/295 77/151/296
f 72/146/297 69/143/298 75/149/299 78/152/300
f 52/126/301 49/123/302 79/154/303 80/153/304
f 49/123/305 55/129/306 81/155/307 79/154/308
f 55/129/309 58/132/310 82/156/311 81/155/312
f 58/132/313 52/126/314 80/153/315 82/156/316
f 70/144/317 67/141/318 83/158/319 84/157/320
f 67/141/321 73/147/322 85/159/323 83/158/324
f 73/147/325 76/150/326 86/160/327 85/159/328
f 76/150/329 70/144/330 84/157/331 86/160/332
